<svg xmlns="http://www.w3.org/2000/svg" width="420" height="360" viewBox="0 0 420 360">
<defs>
  <!-- Card gradient bg -->
  <linearGradient id="cardBg" x1="0" y1="0" x2="0" y2="1">
    <stop offset="0%" stop-color="#1e1e1e"/>
    <stop offset="100%" stop-color="#181818"/>
  </linearGradient>
  <!-- Battery face gradients -->
  <linearGradient id="gF" x1="0" y1="0" x2="0" y2="1">
    <stop offset="0%" stop-color="#e0e0e4"/><stop offset="100%" stop-color="#c8c8ce"/>
  </linearGradient>
  <linearGradient id="gR" x1="0" y1="0" x2="0" y2="1">
    <stop offset="0%" stop-color="#c4c4ca"/><stop offset="100%" stop-color="#adadb3"/>
  </linearGradient>
  <linearGradient id="gC" x1="0" y1="0" x2="1" y2="1">
    <stop offset="0%" stop-color="#f4f4f6"/><stop offset="100%" stop-color="#c2c2c8"/>
  </linearGradient>
  <linearGradient id="glG0" x1="0" y1="0" x2="1" y2="0">
    <stop offset="0%" stop-color="#edff00" stop-opacity="0"/>
    <stop offset="20%" stop-color="#edff00"/>
    <stop offset="50%" stop-color="#ffe84d"/>
    <stop offset="80%" stop-color="#edff00"/>
    <stop offset="100%" stop-color="#edff00" stop-opacity="0"/>
  </linearGradient><linearGradient id="glG1" x1="0" y1="0" x2="1" y2="0">
    <stop offset="0%" stop-color="#edff00" stop-opacity="0"/>
    <stop offset="20%" stop-color="#edff00"/>
    <stop offset="50%" stop-color="#ffe84d"/>
    <stop offset="80%" stop-color="#edff00"/>
    <stop offset="100%" stop-color="#edff00" stop-opacity="0"/>
  </linearGradient><linearGradient id="glG2" x1="0" y1="0" x2="1" y2="0">
    <stop offset="0%" stop-color="#edff00" stop-opacity="0"/>
    <stop offset="20%" stop-color="#edff00"/>
    <stop offset="50%" stop-color="#ffe84d"/>
    <stop offset="80%" stop-color="#edff00"/>
    <stop offset="100%" stop-color="#edff00" stop-opacity="0"/>
  </linearGradient>
  <!-- Panel shadow -->
  <filter id="panShadow" x="-5%" y="-5%" width="115%" height="115%">
    <feDropShadow dx="0" dy="2" stdDeviation="4" flood-color="#000" flood-opacity="0.4"/>
  </filter>
  <!-- Glow filter -->
  <filter id="blur">
    <feGaussianBlur stdDeviation="1.8" result="b"/>
    <feMerge><feMergeNode in="b"/><feMergeNode in="SourceGraphic"/></feMerge>
  </filter>
  <!-- Bat shadow -->
  <filter id="batShadow">
    <feDropShadow dx="3" dy="8" stdDeviation="12" flood-color="#000" flood-opacity="0.35"/>
  </filter>
  <!-- Neon text -->
  <filter id="textGlow">
    <feGaussianBlur stdDeviation="3" result="b"/>
    <feMerge><feMergeNode in="b"/><feMergeNode in="SourceGraphic"/></feMerge>
  </filter>
  <!-- Clip card -->
  <clipPath id="cardClip">
    <rect width="420" height="360" rx="22"/>
  </clipPath>
</defs>

<!-- Card background -->
<rect width="420" height="360" rx="22" fill="url(#cardBg)" stroke="#2a2a2a" stroke-width="1"/>
<rect clip-path="url(#cardClip)" width="420" height="360" fill="none"
  style="box-shadow:inset 0 0 60px rgba(0,0,0,0.5)"/>

<!-- Subtle grid texture -->
<g clip-path="url(#cardClip)" opacity="0.025">
  <line x1="0" y1="0" x2="420" y2="0" stroke="white" stroke-width="0.5"/><line x1="0" y1="12" x2="420" y2="12" stroke="white" stroke-width="0.5"/><line x1="0" y1="24" x2="420" y2="24" stroke="white" stroke-width="0.5"/><line x1="0" y1="36" x2="420" y2="36" stroke="white" stroke-width="0.5"/><line x1="0" y1="48" x2="420" y2="48" stroke="white" stroke-width="0.5"/><line x1="0" y1="60" x2="420" y2="60" stroke="white" stroke-width="0.5"/><line x1="0" y1="72" x2="420" y2="72" stroke="white" stroke-width="0.5"/><line x1="0" y1="84" x2="420" y2="84" stroke="white" stroke-width="0.5"/><line x1="0" y1="96" x2="420" y2="96" stroke="white" stroke-width="0.5"/><line x1="0" y1="108" x2="420" y2="108" stroke="white" stroke-width="0.5"/><line x1="0" y1="120" x2="420" y2="120" stroke="white" stroke-width="0.5"/><line x1="0" y1="132" x2="420" y2="132" stroke="white" stroke-width="0.5"/><line x1="0" y1="144" x2="420" y2="144" stroke="white" stroke-width="0.5"/><line x1="0" y1="156" x2="420" y2="156" stroke="white" stroke-width="0.5"/><line x1="0" y1="168" x2="420" y2="168" stroke="white" stroke-width="0.5"/><line x1="0" y1="180" x2="420" y2="180" stroke="white" stroke-width="0.5"/><line x1="0" y1="192" x2="420" y2="192" stroke="white" stroke-width="0.5"/><line x1="0" y1="204" x2="420" y2="204" stroke="white" stroke-width="0.5"/><line x1="0" y1="216" x2="420" y2="216" stroke="white" stroke-width="0.5"/><line x1="0" y1="228" x2="420" y2="228" stroke="white" stroke-width="0.5"/><line x1="0" y1="240" x2="420" y2="240" stroke="white" stroke-width="0.5"/><line x1="0" y1="252" x2="420" y2="252" stroke="white" stroke-width="0.5"/><line x1="0" y1="264" x2="420" y2="264" stroke="white" stroke-width="0.5"/><line x1="0" y1="276" x2="420" y2="276" stroke="white" stroke-width="0.5"/><line x1="0" y1="288" x2="420" y2="288" stroke="white" stroke-width="0.5"/><line x1="0" y1="300" x2="420" y2="300" stroke="white" stroke-width="0.5"/><line x1="0" y1="312" x2="420" y2="312" stroke="white" stroke-width="0.5"/><line x1="0" y1="324" x2="420" y2="324" stroke="white" stroke-width="0.5"/><line x1="0" y1="336" x2="420" y2="336" stroke="white" stroke-width="0.5"/><line x1="0" y1="348" x2="420" y2="348" stroke="white" stroke-width="0.5"/><line x1="0" y1="360" x2="420" y2="360" stroke="white" stroke-width="0.5"/><line x1="0" y1="372" x2="420" y2="372" stroke="white" stroke-width="0.5"/><line x1="0" y1="384" x2="420" y2="384" stroke="white" stroke-width="0.5"/><line x1="0" y1="396" x2="420" y2="396" stroke="white" stroke-width="0.5"/><line x1="0" y1="408" x2="420" y2="408" stroke="white" stroke-width="0.5"/><line x1="0" y1="420" x2="420" y2="420" stroke="white" stroke-width="0.5"/><line x1="0" y1="432" x2="420" y2="432" stroke="white" stroke-width="0.5"/><line x1="0" y1="444" x2="420" y2="444" stroke="white" stroke-width="0.5"/><line x1="0" y1="456" x2="420" y2="456" stroke="white" stroke-width="0.5"/><line x1="0" y1="468" x2="420" y2="468" stroke="white" stroke-width="0.5"/>
  <line x1="0" y1="0" x2="0" y2="360" stroke="white" stroke-width="0.5"/><line x1="12" y1="0" x2="12" y2="360" stroke="white" stroke-width="0.5"/><line x1="24" y1="0" x2="24" y2="360" stroke="white" stroke-width="0.5"/><line x1="36" y1="0" x2="36" y2="360" stroke="white" stroke-width="0.5"/><line x1="48" y1="0" x2="48" y2="360" stroke="white" stroke-width="0.5"/><line x1="60" y1="0" x2="60" y2="360" stroke="white" stroke-width="0.5"/><line x1="72" y1="0" x2="72" y2="360" stroke="white" stroke-width="0.5"/><line x1="84" y1="0" x2="84" y2="360" stroke="white" stroke-width="0.5"/><line x1="96" y1="0" x2="96" y2="360" stroke="white" stroke-width="0.5"/><line x1="108" y1="0" x2="108" y2="360" stroke="white" stroke-width="0.5"/><line x1="120" y1="0" x2="120" y2="360" stroke="white" stroke-width="0.5"/><line x1="132" y1="0" x2="132" y2="360" stroke="white" stroke-width="0.5"/><line x1="144" y1="0" x2="144" y2="360" stroke="white" stroke-width="0.5"/><line x1="156" y1="0" x2="156" y2="360" stroke="white" stroke-width="0.5"/><line x1="168" y1="0" x2="168" y2="360" stroke="white" stroke-width="0.5"/><line x1="180" y1="0" x2="180" y2="360" stroke="white" stroke-width="0.5"/><line x1="192" y1="0" x2="192" y2="360" stroke="white" stroke-width="0.5"/><line x1="204" y1="0" x2="204" y2="360" stroke="white" stroke-width="0.5"/><line x1="216" y1="0" x2="216" y2="360" stroke="white" stroke-width="0.5"/><line x1="228" y1="0" x2="228" y2="360" stroke="white" stroke-width="0.5"/><line x1="240" y1="0" x2="240" y2="360" stroke="white" stroke-width="0.5"/><line x1="252" y1="0" x2="252" y2="360" stroke="white" stroke-width="0.5"/><line x1="264" y1="0" x2="264" y2="360" stroke="white" stroke-width="0.5"/><line x1="276" y1="0" x2="276" y2="360" stroke="white" stroke-width="0.5"/><line x1="288" y1="0" x2="288" y2="360" stroke="white" stroke-width="0.5"/><line x1="300" y1="0" x2="300" y2="360" stroke="white" stroke-width="0.5"/><line x1="312" y1="0" x2="312" y2="360" stroke="white" stroke-width="0.5"/><line x1="324" y1="0" x2="324" y2="360" stroke="white" stroke-width="0.5"/><line x1="336" y1="0" x2="336" y2="360" stroke="white" stroke-width="0.5"/><line x1="348" y1="0" x2="348" y2="360" stroke="white" stroke-width="0.5"/><line x1="360" y1="0" x2="360" y2="360" stroke="white" stroke-width="0.5"/><line x1="372" y1="0" x2="372" y2="360" stroke="white" stroke-width="0.5"/><line x1="384" y1="0" x2="384" y2="360" stroke="white" stroke-width="0.5"/><line x1="396" y1="0" x2="396" y2="360" stroke="white" stroke-width="0.5"/><line x1="408" y1="0" x2="408" y2="360" stroke="white" stroke-width="0.5"/><line x1="420" y1="0" x2="420" y2="360" stroke="white" stroke-width="0.5"/>
</g>

<!-- ══ HEADER ══ -->
<!-- Star icon -->
<g transform="translate(22,22)">
  <path d="M8 0 C8 0 7 7 0 8 C0 8 7 9 8 16 C8 16 9 9 16 8 C16 8 9 7 8 0Z"
    fill="#edff00" filter="url(#textGlow)"/>
</g>
<!-- STOREY brand -->
<text x="44" y="34" font-family="'Arial Black',Impact,sans-serif"
  font-size="20" font-weight="900" letter-spacing="3" fill="#edff00"
  filter="url(#textGlow)">STOREY</text>

<!-- kWh pill -->
<g transform="translate(280,16)">
  <rect width="112" height="28" rx="14" fill="#edff0011" stroke="#edff0044" stroke-width="1.2"/>
  <text x="14" y="19" font-family="'Arial Black',sans-serif" font-size="14" font-weight="800" fill="#edff00">4.8</text>
  <text x="43" y="18" font-family="Arial,sans-serif" font-size="12" fill="#edff0088">/</text>
  <text x="53" y="19" font-family="'Arial Black',sans-serif" font-size="14" font-weight="800" fill="#edff00">6.6</text>
  <text x="78" y="17" font-family="Arial,sans-serif" font-size="9" fill="rgba(255,255,255,0.4)" letter-spacing="1">kWh</text>
</g>

<!-- ══ BATTERY ══ -->
<g filter="url(#batShadow)">
  <g transform="translate(24,68) scale(1.35)"><path d="M1.37 4.73 L79.15 12.45 Q86.15 13.14 88.15 12.74 L88.15 64.25 Q86.15 64.65 79.15 63.96 L1.37 56.31 Z" fill="url(#gF)"/><path d="M84.15 12.94 L93.15 11.74 L110.68 8.24 L110.68 59.82 L93.15 63.25 L84.15 64.45 Z" fill="url(#gR)"/><path d="M84.35 13.03 L7.67 6.21 L1.37 4.73 Q1.37 4.73 4.36 4.430000000000001 L27.1 2.22 Q30.1 1.93 33.09 2.16 L107.68 8.01 Q110.68 8.24 109.78 9.64 C109.08 9.61 107.12 10.50 105.03 10.79 L92.14 12.60 C89.56 12.96 86.95 13.03 84.35 13.03 Z" fill="url(#gC)" stroke="#c2c2c8" stroke-width="0.5"/><polygon points="66.15,13.156041519226232 78.15,14.346416607690493 78.15,26.346416607690493 66.15,25.156041519226232" fill="#b0b0b6" stroke="#8f8f94" stroke-width="0.5"/><path d="M1.37 20.73 L79.15 28.45 Q86.15 29.14 93.15 27.74 L110.68 24.240000000000002" stroke="#ababaf" stroke-width="0.55" fill="none" stroke-linecap="round" opacity="0.6"/><path d="M1.37 56.31 L79.15 63.96 Q86.15 64.65 93.15 63.25 L110.68 59.82" stroke="#ababaf" stroke-width="0.75" fill="none" stroke-linecap="round"/><path d="M1.37 58.81 L79.15 66.46 Q86.15 67.15 93.15 65.75 L110.68 62.32" stroke="#6a6a70" stroke-width="0.45" fill="none" stroke-linecap="round" opacity="0.4"/><line x1="1.37" y1="4.73" x2="1.37" y2="56.31" stroke="#8f8f94" stroke-width="1.6" stroke-linecap="round"/><line x1="110.68" y1="8.24" x2="110.68" y2="59.82" stroke="#8f8f94" stroke-width="1.5" stroke-linecap="round"/><path d="M1.37 56.31 L79.15 64.04 Q86.15 64.73 88.15 64.33 L88.15 99.28 Q86.15 99.68 79.15 98.99 L1.37 91.34 Z" fill="url(#gF)"/><path d="M84.15 64.53 L93.15 63.33 L110.68 59.81 L110.68 94.85 L93.15 98.28 L84.15 99.48 Z" fill="url(#gR)"/><path d="M1.37 56.31 L79.15 64.04 Q86.15 64.73 93.15 63.33 L110.68 59.81" stroke="#ababaf" stroke-width="0.75" fill="none" stroke-linecap="round"/><path d="M1.37 91.34 L79.15 98.99 Q86.15 99.68 93.15 98.28 L110.68 94.85" stroke="#ababaf" stroke-width="0.75" fill="none" stroke-linecap="round"/><line x1="1.37" y1="56.31" x2="1.37" y2="91.34" stroke="#8f8f94" stroke-width="1.2"/><line x1="110.68" y1="59.81" x2="110.68" y2="94.85" stroke="#8f8f94" stroke-width="1.1"/><path d="M1.37 91.34 L79.15 99.07 Q86.15 99.76 88.15 99.36 L88.15 134.31 Q86.15 134.71 79.15 134.02 L1.37 126.37 Z" fill="url(#gF)"/><path d="M84.15 99.56 L93.15 98.36 L110.68 94.84 L110.68 129.88 L93.15 133.31 L84.15 134.51 Z" fill="url(#gR)"/><path d="M1.37 91.34 L79.15 99.07 Q86.15 99.76 93.15 98.36 L110.68 94.84" stroke="#ababaf" stroke-width="0.75" fill="none" stroke-linecap="round"/><path d="M1.37 126.37 L79.15 134.02 Q86.15 134.71 93.15 133.31 L110.68 129.88" stroke="#ababaf" stroke-width="0.75" fill="none" stroke-linecap="round"/><line x1="1.37" y1="91.34" x2="1.37" y2="126.37" stroke="#8f8f94" stroke-width="1.2"/><line x1="110.68" y1="94.84" x2="110.68" y2="129.88" stroke="#8f8f94" stroke-width="1.1"/><path d="M1.37 126.37 L79.15 134.02 Q86.15 134.71 88.15 134.31 L88.15 141.66 Q86.15 142.06 79.15 141.37 L1.37 133.65 Z" fill="url(#gF)"/><path d="M84.15 134.51 L93.15 133.31 L110.68 129.88 L110.68 137.16 L93.15 140.66 L84.15 141.86 Z" fill="url(#gR)"/><path d="M1.37 126.37 L79.15 134.02 Q86.15 134.71 93.15 133.31 L110.68 129.88" stroke="#ababaf" stroke-width="0.75" fill="none" stroke-linecap="round"/><line x1="1.37" y1="126.37" x2="1.37" y2="133.65" stroke="#8f8f94" stroke-width="1.2"/><path d="M1.37 133.65 L79.15 141.37 Q86.15 142.06 93.15 140.66 L110.68 137.16" stroke="#8f8f94" stroke-width="1" fill="none" stroke-linecap="round"/><line x1="110.68" y1="129.88" x2="110.68" y2="137.16" stroke="#8f8f94" stroke-width="1.1"/></g>
</g>
<!-- Glow lines -->
<g filter="url(#blur)">
  <g transform="translate(24,68) scale(1.35)"><path d="M1.37 56.31 L79.15 63.96 Q86.15 64.65 93.15 63.25 L110.68 59.82" stroke="url(#glG0)" stroke-width="2.5" stroke-linecap="round" fill="none" opacity="0.75"/><path d="M1.37 91.34 L79.15 98.99 Q86.15 99.68 93.15 98.28 L110.68 94.85" stroke="url(#glG1)" stroke-width="2.5" stroke-linecap="round" fill="none" opacity="0.75"/><path d="M1.37 126.37 L79.15 134.02 Q86.15 134.71 93.15 133.31 L110.68 129.88" stroke="url(#glG2)" stroke-width="2.5" stroke-linecap="round" fill="none" opacity="0.75"/></g>
</g>

<!-- ══ SOC PANEL ══ -->
<g transform="translate(194.55,72)">
  <text x="2" y="-3" font-family="Arial,sans-serif" font-size="7" letter-spacing="2" fill="#edff00">SOC</text>
  <rect width="79.2" height="40.8" rx="6" fill="#222" filter="url(#panShadow)"/>
  <g fill="rgba(255,255,255,.05)"><circle cx="24.4" cy="6.8" r="1.80"/><circle cx="6.8" cy="11.2" r="1.80"/><circle cx="11.2" cy="11.2" r="1.80"/><circle cx="15.6" cy="11.2" r="1.80"/><circle cx="24.4" cy="11.2" r="1.80"/><circle cx="6.8" cy="15.6" r="1.80"/><circle cx="11.2" cy="15.6" r="1.80"/><circle cx="20.0" cy="15.6" r="1.80"/><circle cx="24.4" cy="15.6" r="1.80"/><circle cx="6.8" cy="20.0" r="1.80"/><circle cx="15.6" cy="20.0" r="1.80"/><circle cx="20.0" cy="20.0" r="1.80"/><circle cx="24.4" cy="20.0" r="1.80"/><circle cx="6.8" cy="24.4" r="1.80"/><circle cx="15.6" cy="24.4" r="1.80"/><circle cx="20.0" cy="24.4" r="1.80"/><circle cx="24.4" cy="24.4" r="1.80"/><circle cx="6.8" cy="28.8" r="1.80"/><circle cx="15.6" cy="28.8" r="1.80"/><circle cx="20.0" cy="28.8" r="1.80"/><circle cx="24.4" cy="28.8" r="1.80"/><circle cx="6.8" cy="33.2" r="1.80"/><circle cx="15.6" cy="33.2" r="1.80"/><circle cx="20.0" cy="33.2" r="1.80"/><circle cx="24.4" cy="33.2" r="1.80"/><circle cx="48.0" cy="6.8" r="1.80"/><circle cx="34.8" cy="11.2" r="1.80"/><circle cx="39.2" cy="11.2" r="1.80"/><circle cx="48.0" cy="11.2" r="1.80"/><circle cx="34.8" cy="15.6" r="1.80"/><circle cx="39.2" cy="15.6" r="1.80"/><circle cx="48.0" cy="15.6" r="1.80"/><circle cx="48.0" cy="20.0" r="1.80"/><circle cx="34.8" cy="24.4" r="1.80"/><circle cx="39.2" cy="24.4" r="1.80"/><circle cx="48.0" cy="24.4" r="1.80"/><circle cx="34.8" cy="28.8" r="1.80"/><circle cx="39.2" cy="28.8" r="1.80"/><circle cx="48.0" cy="28.8" r="1.80"/><circle cx="48.0" cy="33.2" r="1.80"/><circle cx="62.8" cy="6.8" r="1.80"/><circle cx="67.2" cy="6.8" r="1.80"/><circle cx="62.8" cy="11.2" r="1.80"/><circle cx="71.6" cy="11.2" r="1.80"/><circle cx="54.0" cy="15.6" r="1.80"/><circle cx="58.4" cy="15.6" r="1.80"/><circle cx="67.2" cy="15.6" r="1.80"/><circle cx="71.6" cy="15.6" r="1.80"/><circle cx="54.0" cy="20.0" r="1.80"/><circle cx="58.4" cy="20.0" r="1.80"/><circle cx="67.2" cy="20.0" r="1.80"/><circle cx="71.6" cy="20.0" r="1.80"/><circle cx="54.0" cy="24.4" r="1.80"/><circle cx="62.8" cy="24.4" r="1.80"/><circle cx="67.2" cy="24.4" r="1.80"/><circle cx="71.6" cy="24.4" r="1.80"/><circle cx="54.0" cy="28.8" r="1.80"/><circle cx="62.8" cy="28.8" r="1.80"/><circle cx="58.4" cy="33.2" r="1.80"/><circle cx="62.8" cy="33.2" r="1.80"/></g>
  <g fill="#edff00"><circle cx="6.8" cy="6.8" r="1.80"/><circle cx="11.2" cy="6.8" r="1.80"/><circle cx="15.6" cy="6.8" r="1.80"/><circle cx="20.0" cy="6.8" r="1.80"/><circle cx="20.0" cy="11.2" r="1.80"/><circle cx="15.6" cy="15.6" r="1.80"/><circle cx="11.2" cy="20.0" r="1.80"/><circle cx="11.2" cy="24.4" r="1.80"/><circle cx="11.2" cy="28.8" r="1.80"/><circle cx="11.2" cy="33.2" r="1.80"/><circle cx="30.4" cy="6.8" r="1.80"/><circle cx="34.8" cy="6.8" r="1.80"/><circle cx="39.2" cy="6.8" r="1.80"/><circle cx="43.6" cy="6.8" r="1.80"/><circle cx="30.4" cy="11.2" r="1.80"/><circle cx="43.6" cy="11.2" r="1.80"/><circle cx="30.4" cy="15.6" r="1.80"/><circle cx="43.6" cy="15.6" r="1.80"/><circle cx="30.4" cy="20.0" r="1.80"/><circle cx="34.8" cy="20.0" r="1.80"/><circle cx="39.2" cy="20.0" r="1.80"/><circle cx="43.6" cy="20.0" r="1.80"/><circle cx="30.4" cy="24.4" r="1.80"/><circle cx="43.6" cy="24.4" r="1.80"/><circle cx="30.4" cy="28.8" r="1.80"/><circle cx="43.6" cy="28.8" r="1.80"/><circle cx="30.4" cy="33.2" r="1.80"/><circle cx="34.8" cy="33.2" r="1.80"/><circle cx="39.2" cy="33.2" r="1.80"/><circle cx="43.6" cy="33.2" r="1.80"/><circle cx="54.0" cy="6.8" r="1.80"/><circle cx="58.4" cy="6.8" r="1.80"/><circle cx="71.6" cy="6.8" r="1.80"/><circle cx="54.0" cy="11.2" r="1.80"/><circle cx="58.4" cy="11.2" r="1.80"/><circle cx="67.2" cy="11.2" r="1.80"/><circle cx="62.8" cy="15.6" r="1.80"/><circle cx="62.8" cy="20.0" r="1.80"/><circle cx="58.4" cy="24.4" r="1.80"/><circle cx="58.4" cy="28.8" r="1.80"/><circle cx="67.2" cy="28.8" r="1.80"/><circle cx="71.6" cy="28.8" r="1.80"/><circle cx="54.0" cy="33.2" r="1.80"/><circle cx="67.2" cy="33.2" r="1.80"/><circle cx="71.6" cy="33.2" r="1.80"/></g>
</g>

<!-- ══ POWER PANEL ══ -->
<g transform="translate(194.55,134.8)">
  <text x="2" y="-3" font-family="Arial,sans-serif" font-size="7" letter-spacing="2" fill="#edff00">↑ W</text>
  <rect width="80.0" height="33.2" rx="6" fill="#222" filter="url(#panShadow)"/>
  <g fill="rgba(255,255,255,.05)"><circle cx="19.6" cy="6.4" r="1.36"/><circle cx="6.4" cy="9.7" r="1.36"/><circle cx="9.7" cy="9.7" r="1.36"/><circle cx="13.0" cy="9.7" r="1.36"/><circle cx="19.6" cy="9.7" r="1.36"/><circle cx="6.4" cy="13.0" r="1.36"/><circle cx="9.7" cy="13.0" r="1.36"/><circle cx="13.0" cy="13.0" r="1.36"/><circle cx="19.6" cy="13.0" r="1.36"/><circle cx="19.6" cy="16.3" r="1.36"/><circle cx="9.7" cy="19.6" r="1.36"/><circle cx="13.0" cy="19.6" r="1.36"/><circle cx="16.3" cy="19.6" r="1.36"/><circle cx="19.6" cy="19.6" r="1.36"/><circle cx="9.7" cy="23.0" r="1.36"/><circle cx="13.0" cy="23.0" r="1.36"/><circle cx="16.3" cy="23.0" r="1.36"/><circle cx="19.6" cy="23.0" r="1.36"/><circle cx="19.6" cy="26.3" r="1.36"/><circle cx="24.2" cy="6.4" r="1.36"/><circle cx="27.5" cy="6.4" r="1.36"/><circle cx="30.8" cy="6.4" r="1.36"/><circle cx="34.1" cy="6.4" r="1.36"/><circle cx="37.4" cy="6.4" r="1.36"/><circle cx="24.2" cy="9.7" r="1.36"/><circle cx="27.5" cy="9.7" r="1.36"/><circle cx="30.8" cy="9.7" r="1.36"/><circle cx="34.1" cy="9.7" r="1.36"/><circle cx="37.4" cy="9.7" r="1.36"/><circle cx="24.2" cy="13.0" r="1.36"/><circle cx="27.5" cy="13.0" r="1.36"/><circle cx="30.8" cy="13.0" r="1.36"/><circle cx="34.1" cy="13.0" r="1.36"/><circle cx="37.4" cy="13.0" r="1.36"/><circle cx="24.2" cy="16.3" r="1.36"/><circle cx="27.5" cy="16.3" r="1.36"/><circle cx="30.8" cy="16.3" r="1.36"/><circle cx="34.1" cy="16.3" r="1.36"/><circle cx="37.4" cy="16.3" r="1.36"/><circle cx="24.2" cy="19.6" r="1.36"/><circle cx="27.5" cy="19.6" r="1.36"/><circle cx="30.8" cy="19.6" r="1.36"/><circle cx="34.1" cy="19.6" r="1.36"/><circle cx="37.4" cy="19.6" r="1.36"/><circle cx="24.2" cy="23.0" r="1.36"/><circle cx="34.1" cy="23.0" r="1.36"/><circle cx="37.4" cy="23.0" r="1.36"/><circle cx="24.2" cy="26.3" r="1.36"/><circle cx="34.1" cy="26.3" r="1.36"/><circle cx="37.4" cy="26.3" r="1.36"/><circle cx="55.2" cy="6.4" r="1.36"/><circle cx="45.3" cy="9.7" r="1.36"/><circle cx="48.6" cy="9.7" r="1.36"/><circle cx="51.9" cy="9.7" r="1.36"/><circle cx="55.2" cy="9.7" r="1.36"/><circle cx="45.3" cy="13.0" r="1.36"/><circle cx="48.6" cy="13.0" r="1.36"/><circle cx="51.9" cy="13.0" r="1.36"/><circle cx="55.2" cy="13.0" r="1.36"/><circle cx="55.2" cy="16.3" r="1.36"/><circle cx="45.3" cy="19.6" r="1.36"/><circle cx="48.6" cy="19.6" r="1.36"/><circle cx="55.2" cy="19.6" r="1.36"/><circle cx="45.3" cy="23.0" r="1.36"/><circle cx="48.6" cy="23.0" r="1.36"/><circle cx="55.2" cy="23.0" r="1.36"/><circle cx="55.2" cy="26.3" r="1.36"/><circle cx="63.1" cy="6.4" r="1.36"/><circle cx="66.4" cy="6.4" r="1.36"/><circle cx="69.7" cy="6.4" r="1.36"/><circle cx="73.0" cy="6.4" r="1.36"/><circle cx="63.1" cy="9.7" r="1.36"/><circle cx="66.4" cy="9.7" r="1.36"/><circle cx="73.0" cy="9.7" r="1.36"/><circle cx="63.1" cy="13.0" r="1.36"/><circle cx="69.7" cy="13.0" r="1.36"/><circle cx="73.0" cy="13.0" r="1.36"/><circle cx="66.4" cy="16.3" r="1.36"/><circle cx="69.7" cy="16.3" r="1.36"/><circle cx="73.0" cy="16.3" r="1.36"/><circle cx="63.1" cy="19.6" r="1.36"/><circle cx="69.7" cy="19.6" r="1.36"/><circle cx="73.0" cy="19.6" r="1.36"/><circle cx="63.1" cy="23.0" r="1.36"/><circle cx="66.4" cy="23.0" r="1.36"/><circle cx="73.0" cy="23.0" r="1.36"/><circle cx="63.1" cy="26.3" r="1.36"/><circle cx="66.4" cy="26.3" r="1.36"/><circle cx="73.0" cy="26.3" r="1.36"/></g>
  <g fill="#edff00"><circle cx="6.4" cy="6.4" r="1.36"/><circle cx="9.7" cy="6.4" r="1.36"/><circle cx="13.0" cy="6.4" r="1.36"/><circle cx="16.3" cy="6.4" r="1.36"/><circle cx="16.3" cy="9.7" r="1.36"/><circle cx="16.3" cy="13.0" r="1.36"/><circle cx="6.4" cy="16.3" r="1.36"/><circle cx="9.7" cy="16.3" r="1.36"/><circle cx="13.0" cy="16.3" r="1.36"/><circle cx="16.3" cy="16.3" r="1.36"/><circle cx="6.4" cy="19.6" r="1.36"/><circle cx="6.4" cy="23.0" r="1.36"/><circle cx="6.4" cy="26.3" r="1.36"/><circle cx="9.7" cy="26.3" r="1.36"/><circle cx="13.0" cy="26.3" r="1.36"/><circle cx="16.3" cy="26.3" r="1.36"/><circle cx="27.5" cy="23.0" r="1.36"/><circle cx="30.8" cy="23.0" r="1.36"/><circle cx="27.5" cy="26.3" r="1.36"/><circle cx="30.8" cy="26.3" r="1.36"/><circle cx="42.0" cy="6.4" r="1.36"/><circle cx="45.3" cy="6.4" r="1.36"/><circle cx="48.6" cy="6.4" r="1.36"/><circle cx="51.9" cy="6.4" r="1.36"/><circle cx="42.0" cy="9.7" r="1.36"/><circle cx="42.0" cy="13.0" r="1.36"/><circle cx="42.0" cy="16.3" r="1.36"/><circle cx="45.3" cy="16.3" r="1.36"/><circle cx="48.6" cy="16.3" r="1.36"/><circle cx="51.9" cy="16.3" r="1.36"/><circle cx="42.0" cy="19.6" r="1.36"/><circle cx="51.9" cy="19.6" r="1.36"/><circle cx="42.0" cy="23.0" r="1.36"/><circle cx="51.9" cy="23.0" r="1.36"/><circle cx="42.0" cy="26.3" r="1.36"/><circle cx="45.3" cy="26.3" r="1.36"/><circle cx="48.6" cy="26.3" r="1.36"/><circle cx="51.9" cy="26.3" r="1.36"/><circle cx="59.8" cy="6.4" r="1.36"/><circle cx="59.8" cy="9.7" r="1.36"/><circle cx="69.7" cy="9.7" r="1.36"/><circle cx="59.8" cy="13.0" r="1.36"/><circle cx="66.4" cy="13.0" r="1.36"/><circle cx="59.8" cy="16.3" r="1.36"/><circle cx="63.1" cy="16.3" r="1.36"/><circle cx="59.8" cy="19.6" r="1.36"/><circle cx="66.4" cy="19.6" r="1.36"/><circle cx="59.8" cy="23.0" r="1.36"/><circle cx="69.7" cy="23.0" r="1.36"/><circle cx="59.8" cy="26.3" r="1.36"/><circle cx="69.7" cy="26.3" r="1.36"/></g>
</g>

<!-- ══ IDLE / SLEEPY PANEL ══ -->
<g transform="translate(194.55,190)">
  <text x="2" y="-3" font-family="Arial,sans-serif" font-size="7" letter-spacing="2" fill="rgba(255,255,255,.3)">IDLE</text>
  <rect width="57.6" height="57.6" rx="6" fill="#1a1a1a" filter="url(#panShadow)"/>
  <g fill="rgba(255,255,255,.04)"><circle cx="6.8" cy="6.8" r="1.8"/><circle cx="11.2" cy="6.8" r="1.8"/><circle cx="46.4" cy="6.8" r="1.8"/><circle cx="50.8" cy="6.8" r="1.8"/><circle cx="6.8" cy="11.2" r="1.8"/><circle cx="15.6" cy="11.2" r="1.8"/><circle cx="20.0" cy="11.2" r="1.8"/><circle cx="24.4" cy="11.2" r="1.8"/><circle cx="28.8" cy="11.2" r="1.8"/><circle cx="33.2" cy="11.2" r="1.8"/><circle cx="37.6" cy="11.2" r="1.8"/><circle cx="42.0" cy="11.2" r="1.8"/><circle cx="50.8" cy="11.2" r="1.8"/><circle cx="11.2" cy="15.6" r="1.8"/><circle cx="15.6" cy="15.6" r="1.8"/><circle cx="20.0" cy="15.6" r="1.8"/><circle cx="24.4" cy="15.6" r="1.8"/><circle cx="28.8" cy="15.6" r="1.8"/><circle cx="33.2" cy="15.6" r="1.8"/><circle cx="37.6" cy="15.6" r="1.8"/><circle cx="42.0" cy="15.6" r="1.8"/><circle cx="46.4" cy="15.6" r="1.8"/><circle cx="11.2" cy="20.0" r="1.8"/><circle cx="15.6" cy="20.0" r="1.8"/><circle cx="20.0" cy="20.0" r="1.8"/><circle cx="24.4" cy="20.0" r="1.8"/><circle cx="28.8" cy="20.0" r="1.8"/><circle cx="33.2" cy="20.0" r="1.8"/><circle cx="37.6" cy="20.0" r="1.8"/><circle cx="42.0" cy="20.0" r="1.8"/><circle cx="46.4" cy="20.0" r="1.8"/><circle cx="11.2" cy="33.2" r="1.8"/><circle cx="15.6" cy="33.2" r="1.8"/><circle cx="20.0" cy="33.2" r="1.8"/><circle cx="24.4" cy="33.2" r="1.8"/><circle cx="28.8" cy="33.2" r="1.8"/><circle cx="33.2" cy="33.2" r="1.8"/><circle cx="37.6" cy="33.2" r="1.8"/><circle cx="42.0" cy="33.2" r="1.8"/><circle cx="46.4" cy="33.2" r="1.8"/><circle cx="11.2" cy="37.6" r="1.8"/><circle cx="15.6" cy="37.6" r="1.8"/><circle cx="20.0" cy="37.6" r="1.8"/><circle cx="24.4" cy="37.6" r="1.8"/><circle cx="28.8" cy="37.6" r="1.8"/><circle cx="33.2" cy="37.6" r="1.8"/><circle cx="37.6" cy="37.6" r="1.8"/><circle cx="42.0" cy="37.6" r="1.8"/><circle cx="46.4" cy="37.6" r="1.8"/><circle cx="11.2" cy="42.0" r="1.8"/><circle cx="15.6" cy="42.0" r="1.8"/><circle cx="37.6" cy="42.0" r="1.8"/><circle cx="42.0" cy="42.0" r="1.8"/><circle cx="46.4" cy="42.0" r="1.8"/><circle cx="6.8" cy="46.4" r="1.8"/><circle cx="15.6" cy="46.4" r="1.8"/><circle cx="20.0" cy="46.4" r="1.8"/><circle cx="24.4" cy="46.4" r="1.8"/><circle cx="28.8" cy="46.4" r="1.8"/><circle cx="33.2" cy="46.4" r="1.8"/><circle cx="37.6" cy="46.4" r="1.8"/><circle cx="42.0" cy="46.4" r="1.8"/><circle cx="50.8" cy="46.4" r="1.8"/><circle cx="6.8" cy="50.8" r="1.8"/><circle cx="11.2" cy="50.8" r="1.8"/><circle cx="46.4" cy="50.8" r="1.8"/><circle cx="50.8" cy="50.8" r="1.8"/><circle cx="11.2" cy="24.4" r="1.8"/><circle cx="15.6" cy="24.4" r="1.8"/><circle cx="24.4" cy="24.4" r="1.8"/><circle cx="28.8" cy="24.4" r="1.8"/><circle cx="33.2" cy="24.4" r="1.8"/><circle cx="42.0" cy="24.4" r="1.8"/><circle cx="46.4" cy="24.4" r="1.8"/><circle cx="11.2" cy="28.8" r="1.8"/><circle cx="20.0" cy="28.8" r="1.8"/><circle cx="28.8" cy="28.8" r="1.8"/><circle cx="37.6" cy="28.8" r="1.8"/><circle cx="46.4" cy="28.8" r="1.8"/></g>
  <g fill="#edff00"><circle cx="15.6" cy="6.8" r="1.8"/><circle cx="20.0" cy="6.8" r="1.8"/><circle cx="24.4" cy="6.8" r="1.8"/><circle cx="28.8" cy="6.8" r="1.8"/><circle cx="33.2" cy="6.8" r="1.8"/><circle cx="37.6" cy="6.8" r="1.8"/><circle cx="42.0" cy="6.8" r="1.8"/><circle cx="11.2" cy="11.2" r="1.8"/><circle cx="46.4" cy="11.2" r="1.8"/><circle cx="6.8" cy="15.6" r="1.8"/><circle cx="50.8" cy="15.6" r="1.8"/><circle cx="6.8" cy="20.0" r="1.8"/><circle cx="50.8" cy="20.0" r="1.8"/><circle cx="6.8" cy="33.2" r="1.8"/><circle cx="50.8" cy="33.2" r="1.8"/><circle cx="6.8" cy="37.6" r="1.8"/><circle cx="50.8" cy="37.6" r="1.8"/><circle cx="6.8" cy="42.0" r="1.8"/><circle cx="20.0" cy="42.0" r="1.8"/><circle cx="24.4" cy="42.0" r="1.8"/><circle cx="28.8" cy="42.0" r="1.8"/><circle cx="33.2" cy="42.0" r="1.8"/><circle cx="50.8" cy="42.0" r="1.8"/><circle cx="11.2" cy="46.4" r="1.8"/><circle cx="46.4" cy="46.4" r="1.8"/><circle cx="15.6" cy="50.8" r="1.8"/><circle cx="20.0" cy="50.8" r="1.8"/><circle cx="24.4" cy="50.8" r="1.8"/><circle cx="28.8" cy="50.8" r="1.8"/><circle cx="33.2" cy="50.8" r="1.8"/><circle cx="37.6" cy="50.8" r="1.8"/><circle cx="42.0" cy="50.8" r="1.8"/><circle cx="6.8" cy="24.4" r="1.8"/><circle cx="20.0" cy="24.4" r="1.8"/><circle cx="37.6" cy="24.4" r="1.8"/><circle cx="50.8" cy="24.4" r="1.8"/><circle cx="6.8" cy="28.8" r="1.8"/><circle cx="15.6" cy="28.8" r="1.8"/><circle cx="24.4" cy="28.8" r="1.8"/><circle cx="33.2" cy="28.8" r="1.8"/><circle cx="42.0" cy="28.8" r="1.8"/><circle cx="50.8" cy="28.8" r="1.8"/></g>
  <!-- Z bigs -->
  <g fill="#edff00" opacity="0.85"><circle cx="34.6" cy="14.8" r="1.00"/><circle cx="37.4" cy="14.8" r="1.00"/><circle cx="40.2" cy="14.8" r="1.00"/><circle cx="43.0" cy="14.8" r="1.00"/><circle cx="40.2" cy="17.6" r="1.00"/><circle cx="43.0" cy="17.6" r="1.00"/><circle cx="37.4" cy="20.4" r="1.00"/><circle cx="40.2" cy="20.4" r="1.00"/><circle cx="34.6" cy="23.2" r="1.00"/><circle cx="37.4" cy="23.2" r="1.00"/><circle cx="34.6" cy="26.0" r="1.00"/><circle cx="37.4" cy="26.0" r="1.00"/><circle cx="40.2" cy="26.0" r="1.00"/><circle cx="43.0" cy="26.0" r="1.00"/></g>
  <g fill="#edff00" opacity="0.65"><circle cx="40.1" cy="14.6" r="0.75"/><circle cx="42.4" cy="14.6" r="0.75"/><circle cx="44.7" cy="14.6" r="0.75"/><circle cx="42.4" cy="16.9" r="0.75"/><circle cx="40.1" cy="19.1" r="0.75"/><circle cx="42.4" cy="19.1" r="0.75"/><circle cx="44.7" cy="19.1" r="0.75"/></g>
  <g fill="#edff00" opacity="0.45"><circle cx="36.4" cy="14.4" r="0.55"/><circle cx="38.3" cy="14.4" r="0.55"/><circle cx="40.1" cy="14.4" r="0.55"/><circle cx="38.3" cy="16.3" r="0.55"/><circle cx="36.4" cy="18.2" r="0.55"/><circle cx="38.3" cy="18.2" r="0.55"/><circle cx="40.1" cy="18.2" r="0.55"/></g>
</g>

<!-- Bottom label -->
<text x="210" y="350" text-anchor="middle"
  font-family="Arial,sans-serif" font-size="8" letter-spacing="2"
  fill="rgba(255,255,255,0.1)">STOREY BATTERY CARD · HOME ASSISTANT</text>

</svg>