<?xml version="1.0" encoding="UTF-8"?>
<svg xmlns="http://www.w3.org/2000/svg" viewBox="16 105 440 275">
  <path d="m 0,0 c -11.054,0 -22.288,-9.687 -22.288,-21.636 0,-11.949 9.979,-21.635 22.288,-21.635 h 10.143 v 7.033 L 6.332,-32.54 H 0 c 0,0 -11.232,1.232 -11.232,10.904 0,9.673 11.232,10.904 11.232,10.904 h 4.738 l 7.188,-6.978 v -25.561 h 11.055 v 30.006 L 9.317,0 Z" transform="matrix(1.3333333,0,0,-1.3333333,60.997333,306.5312)" fill="#ffffff"/>
  <path d="m 0,0 c -11.054,0 -22.288,-9.687 -22.288,-21.636 0,-11.949 9.979,-21.635 22.288,-21.635 h 10.143 v 7.033 L 6.332,-32.54 H 0 c 0,0 -11.232,1.232 -11.232,10.904 0,9.673 11.232,10.904 11.232,10.904 h 4.738 l 7.188,-6.978 v -25.561 h 11.055 v 30.006 L 9.317,0 Z" transform="matrix(1.3333333,0,0,-1.3333333,187.558,306.5312)" fill="#ffffff"/>
  <path d="m 0,0 h -9.317 c -11.054,0 -22.288,-9.687 -22.288,-21.636 0,-11.949 9.979,-21.635 22.288,-21.635 H 0.825 v 7.033 l -3.81,3.698 h -6.332 c 0,0 -11.233,1.232 -11.233,10.904 0,9.673 11.233,10.904 11.233,10.904 h 4.737 l 7.189,-6.978 v -25.561 h 11.055 v 30.006 z" transform="matrix(1.3333333,0,0,-1.3333333,430.50067,306.5312)" fill="#ffffff"/>
  <path d="m 0,0 c -11.054,0 -22.288,-9.687 -22.288,-21.636 0,-11.949 9.979,-21.635 22.288,-21.635 h 10.143 v 7.033 L 6.332,-32.54 H 0 c 0,0 -11.232,1.232 -11.232,10.904 0,9.673 11.232,10.904 11.232,10.904 h 4.738 l 7.188,-6.978 v -25.561 h 11.055 v 30.006 L 9.317,0 Z" transform="matrix(1.3333333,0,0,-1.3333333,312.2292,306.5312)" fill="#ffffff"/>
  <path d="m 0,0 h 21.333 c 3.803,0 3.536,-3.148 3.536,-3.148 v -4.309 h 11.055 v 7.578 c 0,0 0.622,10.934 -9.243,10.934 h -37.736 v -24.841 h 0.007 l 4.434,-2.971 h -4.441 v -7.488 H 0 v 3.055 L 16.638,-32.215 36.498,-32.217 0,-7.882 Z" transform="matrix(1.3333333,0,0,-1.3333333,109.17707,321.27147)" fill="#ffffff"/>
  <path d="M 0,0 -19.861,-0.001 -36.498,-11.027 V 0 h -11.055 v -24.841 h 0.007 l 4.434,-2.971 h -4.441 V -35.3 h 11.055 v 3.055 L -19.861,-43.271 0,-43.272 -32.45,-21.636 Z" transform="matrix(1.3333333,0,0,-1.3333333,407.61453,306.53053)" fill="#ffffff"/>
  <path d="m 0,0 -19.861,0.002 30.745,-20.5 H -4.695 c -3.803,0 -3.536,3.149 -3.536,3.149 v 4.308 h -11.055 v -7.577 c 0,0 -0.623,-10.935 9.243,-10.935 h 37.736 l -0.007,13.124 z" transform="matrix(1.3333333,0,0,-1.3333333,246.8568,322.15627)" fill="#ffffff"/>
  <path d="M 0,0 -9.864,7.779 H -23.177 V -3.85 L 0,-3.85 Z" transform="matrix(1.3333333,0,0,-1.3333333,277.79227,316.92907)" fill="#ffffff"/>
  <path d="m 0,0 c -31.518,0 -57.068,25.55 -57.068,57.068 0,31.518 25.55,57.068 57.068,57.068 31.518,0 57.068,-25.55 57.068,-57.068 C 57.068,25.55 31.518,0 0,0 m 0,123.328 c -36.594,0 -66.26,-29.665 -66.26,-66.26 0,-36.594 29.666,-66.26 66.26,-66.26 36.594,0 66.26,29.666 66.26,66.26 0,36.595 -29.666,66.26 -66.26,66.26" transform="matrix(1.3333333,0,0,-1.3333333,240,280.2096)" fill="#ffffff"/>
  <path d="m 0,0 c -11.492,0 -20.808,-9.316 -20.808,-20.808 0,-3.888 1.07,-7.526 2.926,-10.64 l -10.953,-10.953 v 30.08 c 9.016,2.282 15.687,10.447 15.687,20.171 0,11.492 -9.316,20.808 -20.808,20.808 -11.491,0 -20.807,-9.316 -20.807,-20.808 0,-9.724 6.671,-17.889 15.687,-20.171 v -30.123 l -10.969,10.969 c 1.866,3.12 2.942,6.767 2.942,10.667 0,11.492 -9.316,20.808 -20.808,20.808 -11.492,0 -20.808,-9.316 -20.808,-20.808 0,-11.492 9.316,-20.808 20.808,-20.808 3.877,0 7.505,1.064 10.612,2.911 l 18.223,-18.223 v -24.053 c 1.687,-0.15 3.394,-0.231 5.12,-0.231 1.727,0 3.434,0.081 5.121,0.231 v 24.097 l 18.195,18.195 c 3.114,-1.857 6.751,-2.927 10.64,-2.927 11.492,0 20.808,9.316 20.808,20.808 C 20.808,-9.316 11.492,0 0,0" transform="matrix(1.3333333,0,0,-1.3333333,285.27413,169.2656)" fill="#ffffff"/>
</svg>