<svg xmlns="http://www.w3.org/2000/svg" viewBox="0 0 1200 720" width="1200" height="720" font-family="'Courier New', monospace">
  <defs>
    <!-- JOI gradients -->
    <linearGradient id="joiBg" x1="0" y1="0" x2="1" y2="1">
      <stop offset="0%" stop-color="#1A1525"/>
      <stop offset="100%" stop-color="#0F0A20"/>
    </linearGradient>
    <linearGradient id="joiSidebar" x1="0" y1="0" x2="1" y2="0">
      <stop offset="0%" stop-color="#14103A"/>
      <stop offset="100%" stop-color="#100B28"/>
    </linearGradient>
    <linearGradient id="joiHeader" x1="0" y1="0" x2="0" y2="1">
      <stop offset="0%" stop-color="#1A1040" stop-opacity="0.9"/>
      <stop offset="100%" stop-color="#120B30" stop-opacity="0.9"/>
    </linearGradient>
    <linearGradient id="joiTitle" x1="0" y1="0" x2="1" y2="0">
      <stop offset="0%" stop-color="#00E8FF"/>
      <stop offset="35%" stop-color="#FF50A0"/>
      <stop offset="65%" stop-color="#E946FF"/>
      <stop offset="100%" stop-color="#00E8FF"/>
    </linearGradient>
    <linearGradient id="joiCard1" x1="0" y1="0" x2="0" y2="1">
      <stop offset="0%" stop-color="#1E143A" stop-opacity="0.7"/>
      <stop offset="100%" stop-color="#160F2E" stop-opacity="0.7"/>
    </linearGradient>
    <linearGradient id="joiProgress" x1="0" y1="0" x2="1" y2="0">
      <stop offset="0%" stop-color="#00E8FF"/>
      <stop offset="50%" stop-color="#B041FF"/>
      <stop offset="100%" stop-color="#E946FF"/>
    </linearGradient>
    <linearGradient id="joiActiveNav" x1="0" y1="0" x2="1" y2="0">
      <stop offset="0%" stop-color="#E946FF" stop-opacity="0.25"/>
      <stop offset="100%" stop-color="#00E8FF" stop-opacity="0.05"/>
    </linearGradient>
    <linearGradient id="joiEdge" x1="0" y1="0" x2="0" y2="1">
      <stop offset="0%" stop-color="transparent"/>
      <stop offset="30%" stop-color="#00E8FF"/>
      <stop offset="50%" stop-color="#FF50A0"/>
      <stop offset="70%" stop-color="#00E8FF"/>
      <stop offset="100%" stop-color="transparent"/>
    </linearGradient>
    <linearGradient id="joiHeaderLine" x1="0" y1="0" x2="1" y2="0">
      <stop offset="0%" stop-color="transparent"/>
      <stop offset="50%" stop-color="#E946FF"/>
      <stop offset="100%" stop-color="transparent"/>
    </linearGradient>
    <linearGradient id="joiCardTop" x1="0" y1="0" x2="1" y2="0">
      <stop offset="0%" stop-color="transparent"/>
      <stop offset="50%" stop-color="#E946FF"/>
      <stop offset="100%" stop-color="transparent"/>
    </linearGradient>

    <!-- NETRUNNER gradients -->
    <linearGradient id="netBg" x1="0" y1="0" x2="1" y2="1">
      <stop offset="0%" stop-color="#050810"/>
      <stop offset="100%" stop-color="#080C18"/>
    </linearGradient>
    <linearGradient id="netSidebar" x1="0" y1="0" x2="1" y2="0">
      <stop offset="0%" stop-color="#0A0E1A" stop-opacity="0.9"/>
      <stop offset="100%" stop-color="#080C18" stop-opacity="0.9"/>
    </linearGradient>
    <linearGradient id="netHeader" x1="0" y1="0" x2="0" y2="1">
      <stop offset="0%" stop-color="#0A0E1A" stop-opacity="0.8"/>
      <stop offset="100%" stop-color="#070A14" stop-opacity="0.8"/>
    </linearGradient>
    <linearGradient id="netEdge" x1="0" y1="0" x2="0" y2="1">
      <stop offset="0%" stop-color="transparent"/>
      <stop offset="50%" stop-color="#00F0FF"/>
      <stop offset="100%" stop-color="transparent"/>
    </linearGradient>
    <linearGradient id="netHeaderLine" x1="0" y1="0" x2="1" y2="0">
      <stop offset="0%" stop-color="transparent"/>
      <stop offset="50%" stop-color="#00F0FF"/>
      <stop offset="100%" stop-color="transparent"/>
    </linearGradient>
    <linearGradient id="netProgress" x1="0" y1="0" x2="1" y2="0">
      <stop offset="0%" stop-color="#00FFCC"/>
      <stop offset="50%" stop-color="#00F0FF"/>
      <stop offset="100%" stop-color="#8CFFFF"/>
    </linearGradient>
    <linearGradient id="netActiveNav" x1="0" y1="0" x2="1" y2="0">
      <stop offset="0%" stop-color="#00FFCC" stop-opacity="0.22"/>
      <stop offset="100%" stop-color="#00F0FF" stop-opacity="0.04"/>
    </linearGradient>
    <linearGradient id="netCardTop" x1="0" y1="0" x2="1" y2="0">
      <stop offset="0%" stop-color="transparent"/>
      <stop offset="50%" stop-color="#00F0FF"/>
      <stop offset="100%" stop-color="transparent"/>
    </linearGradient>

    <!-- Glow filters -->
    <filter id="glowCyan" x="-30%" y="-30%" width="160%" height="160%">
      <feGaussianBlur stdDeviation="3" result="blur"/>
      <feMerge><feMergeNode in="blur"/><feMergeNode in="SourceGraphic"/></feMerge>
    </filter>
    <filter id="glowPink" x="-30%" y="-30%" width="160%" height="160%">
      <feGaussianBlur stdDeviation="4" result="blur"/>
      <feMerge><feMergeNode in="blur"/><feMergeNode in="SourceGraphic"/></feMerge>
    </filter>
    <filter id="glowViolet" x="-30%" y="-30%" width="160%" height="160%">
      <feGaussianBlur stdDeviation="3" result="blur"/>
      <feMerge><feMergeNode in="blur"/><feMergeNode in="SourceGraphic"/></feMerge>
    </filter>
    <filter id="softGlow">
      <feGaussianBlur stdDeviation="6" result="blur"/>
      <feMerge><feMergeNode in="blur"/><feMergeNode in="SourceGraphic"/></feMerge>
    </filter>

    <!-- Clip paths -->
    <clipPath id="joiClip"><rect x="10" y="60" width="578" height="630" rx="14"/></clipPath>
    <clipPath id="netClip"><rect x="612" y="60" width="578" height="630" rx="14"/></clipPath>
  </defs>

  <!-- ═══════════════════════════════════════════
       BACKGROUND
  ═══════════════════════════════════════════ -->
  <rect width="1200" height="720" fill="#080810"/>

  <!-- Page title -->
  <text x="600" y="38" text-anchor="middle" font-family="'Courier New', monospace" font-size="13" font-weight="bold" letter-spacing="6" fill="url(#joiProgress)" opacity="0.9">HOME ASSISTANT THEMES — DARK MODE PREVIEW</text>
  <line x1="100" y1="48" x2="1100" y2="48" stroke="rgba(255,255,255,0.07)" stroke-width="1"/>

  <!-- ═══════════════════════════════════════════
       THEME 1 — NEON NIGHT JOI HDR  (left)
  ═══════════════════════════════════════════ -->
  <!-- Outer border + bg -->
  <rect x="10" y="60" width="578" height="650" rx="14" fill="#100C22" stroke="#E946FF" stroke-opacity="0.25" stroke-width="1"/>

  <!-- Theme label bar -->
  <rect x="10" y="60" width="578" height="32" rx="14" fill="#1A1030"/>
  <rect x="10" y="78" width="578" height="14" fill="#1A1030"/>
  <text x="299" y="81" text-anchor="middle" font-family="'Courier New', monospace" font-size="10" font-weight="bold" letter-spacing="3" fill="url(#joiTitle)">✦  NEON NIGHT JOI — HDR</text>
  <line x1="10" y1="92" x2="588" y2="92" stroke="url(#joiCardTop)" stroke-width="1" opacity="0.6"/>

  <!-- Shell bg -->
  <rect x="10" y="92" width="578" height="480" fill="url(#joiBg)"/>

  <!-- ── Sidebar JOI ── -->
  <rect x="10" y="92" width="155" height="480" fill="url(#joiSidebar)"/>
  <!-- edge glow line -->
  <rect x="163" y="92" width="2" height="480" fill="url(#joiEdge)" opacity="0.8"/>
  <!-- sidebar title -->
  <text x="87" y="126" text-anchor="middle" font-family="'Courier New', monospace" font-size="9" font-weight="bold" letter-spacing="4" fill="#00E8FF" filter="url(#glowCyan)">HOME</text>

  <!-- nav items -->
  <!-- active -->
  <rect x="10" y="136" width="153" height="30" fill="url(#joiActiveNav)"/>
  <rect x="10" y="136" width="3" height="30" fill="#E946FF"/>
  <text x="36" y="156" font-family="'Courier New', monospace" font-size="9" fill="#E946FF" filter="url(#glowViolet)">⌂  TABLEAU DE BORD</text>
  <!-- others -->
  <text x="28" y="184" font-family="'Courier New', monospace" font-size="9" fill="#00E8FF" opacity="0.55">☀  ÉNERGIE</text>
  <text x="28" y="210" font-family="'Courier New', monospace" font-size="9" fill="#00E8FF" opacity="0.55">◉  CARTE</text>
  <text x="28" y="236" font-family="'Courier New', monospace" font-size="9" fill="#00E8FF" opacity="0.55">◈  AUTOMATISATIONS</text>
  <text x="28" y="262" font-family="'Courier New', monospace" font-size="9" fill="#00E8FF" opacity="0.55">⚙  PARAMÈTRES</text>
  <text x="28" y="288" font-family="'Courier New', monospace" font-size="9" fill="#00E8FF" opacity="0.55">◆  HACS</text>

  <!-- ── Header JOI ── -->
  <rect x="165" y="92" width="423" height="42" fill="url(#joiHeader)"/>
  <line x1="165" y1="134" x2="588" y2="134" stroke="url(#joiHeaderLine)" stroke-width="1.5" opacity="0.9"/>
  <text x="185" y="117" font-family="'Courier New', monospace" font-size="9" fill="#00E8FF" filter="url(#glowCyan)" opacity="0.8">⌂</text>
  <text x="200" y="117" font-family="'Courier New', monospace" font-size="9" font-weight="bold" letter-spacing="3" fill="#E8E8E8">TABLEAU DE BORD</text>
  <!-- badge -->
  <rect x="510" y="107" width="52" height="16" rx="8" fill="rgba(255,80,160,0.2)" stroke="rgba(255,80,160,0.4)" stroke-width="1"/>
  <text x="536" y="119" text-anchor="middle" font-family="'Courier New', monospace" font-size="7" fill="#FF50A0">3 alertes</text>
  <text x="572" y="117" font-family="'Courier New', monospace" font-size="9" fill="#00E8FF" opacity="0.7">⚙</text>

  <!-- ── Cards JOI ── -->
  <!-- Card 1: Température -->
  <rect x="172" y="144" width="195" height="110" rx="12" fill="rgba(30,20,45,0.65)" stroke="rgba(0,232,255,0.22)" stroke-width="1"/>
  <rect x="172" y="144" width="195" height="2" rx="1" fill="url(#joiCardTop)" opacity="0.6"/>
  <text x="185" y="163" font-family="'Courier New', monospace" font-size="8" letter-spacing="2" fill="rgba(192,208,224,0.6)">TEMPÉRATURE</text>
  <text x="350" y="163" text-anchor="end" font-family="'Courier New', monospace" font-size="14" fill="#00E8FF" opacity="0.8">🌡</text>
  <text x="185" y="192" font-family="'Courier New', monospace" font-size="26" font-weight="bold" fill="#00E8FF" filter="url(#glowCyan)">21.4°</text>
  <text x="185" y="210" font-family="'Courier New', monospace" font-size="8" fill="rgba(192,208,224,0.4)" letter-spacing="1">SALON · CONFORTABLE</text>
  <!-- state dots -->
  <circle cx="185" cy="232" r="4" fill="#FF50A0" opacity="0.9"/>
  <circle cx="198" cy="232" r="4" fill="#E946FF" opacity="0.7"/>
  <circle cx="211" cy="232" r="4" fill="#00E8FF" opacity="0.6"/>

  <!-- Card 2: Lumière -->
  <rect x="376" y="144" width="200" height="110" rx="12" fill="rgba(30,20,45,0.65)" stroke="rgba(0,232,255,0.22)" stroke-width="1"/>
  <rect x="376" y="144" width="200" height="2" rx="1" fill="url(#joiCardTop)" opacity="0.6"/>
  <text x="389" y="163" font-family="'Courier New', monospace" font-size="8" letter-spacing="2" fill="rgba(192,208,224,0.6)">BUREAU</text>
  <text x="567" y="163" text-anchor="end" font-family="'Courier New', monospace" font-size="14" fill="#E946FF" opacity="0.8">💡</text>
  <text x="389" y="186" font-family="'Courier New', monospace" font-size="13" font-weight="bold" fill="#FF50A0" filter="url(#glowPink)">ALLUMÉ</text>
  <text x="389" y="202" font-family="'Courier New', monospace" font-size="8" fill="rgba(192,208,224,0.4)" letter-spacing="1">LUMINOSITÉ 75%</text>
  <!-- toggle ON -->
  <rect x="389" y="212" width="36" height="18" rx="9" fill="rgba(255,80,160,0.45)" stroke="rgba(255,80,160,0.5)" stroke-width="1"/>
  <circle cx="416" cy="221" r="7" fill="white" opacity="0.9"/>
  <!-- slider -->
  <rect x="435" y="218" width="120" height="4" rx="2" fill="rgba(233,70,255,0.2)"/>
  <rect x="435" y="218" width="90" height="4" rx="2" fill="url(#joiProgress)"/>
  <circle cx="525" cy="220" r="5" fill="#E946FF" filter="url(#glowViolet)"/>

  <!-- Card 3: Media (wide) -->
  <rect x="172" y="265" width="404" height="90" rx="12" fill="rgba(30,20,45,0.65)" stroke="rgba(0,232,255,0.22)" stroke-width="1"/>
  <rect x="172" y="265" width="404" height="2" rx="1" fill="url(#joiCardTop)" opacity="0.6"/>
  <text x="185" y="284" font-family="'Courier New', monospace" font-size="8" letter-spacing="2" fill="rgba(192,208,224,0.6)">LECTEUR — SALON</text>
  <text x="566" y="284" text-anchor="end" font-family="'Courier New', monospace" font-size="11" fill="#E946FF" opacity="0.8">♫</text>
  <!-- album art -->
  <rect x="185" y="290" width="36" height="36" rx="6" fill="#B041FF" opacity="0.8"/>
  <rect x="185" y="290" width="36" height="36" rx="6" fill="url(#joiProgress)" opacity="0.5"/>
  <!-- track info -->
  <text x="232" y="305" font-family="'Courier New', monospace" font-size="9" font-weight="bold" fill="#E8E8E8">Blade Runner Blues</text>
  <text x="232" y="320" font-family="'Courier New', monospace" font-size="8" fill="rgba(192,208,224,0.4)">Vangelis · Soundtrack</text>
  <!-- controls -->
  <text x="480" y="315" text-anchor="middle" font-family="'Courier New', monospace" font-size="14" fill="#E946FF" filter="url(#glowViolet)">⏮  ▶  ⏭</text>
  <!-- progress -->
  <rect x="185" y="335" width="380" height="5" rx="2.5" fill="rgba(0,232,255,0.1)"/>
  <rect x="185" y="335" width="228" height="5" rx="2.5" fill="url(#joiProgress)"/>

  <!-- Card 4: Climate -->
  <rect x="172" y="367" width="195" height="90" rx="12" fill="rgba(30,20,45,0.65)" stroke="rgba(0,232,255,0.22)" stroke-width="1"/>
  <rect x="172" y="367" width="195" height="2" rx="1" fill="url(#joiCardTop)" opacity="0.6"/>
  <text x="185" y="386" font-family="'Courier New', monospace" font-size="8" letter-spacing="2" fill="rgba(192,208,224,0.6)">CLIMATISATION</text>
  <text x="350" y="386" text-anchor="end" font-family="'Courier New', monospace" font-size="11" fill="#50FFD0" opacity="0.8">❄</text>
  <text x="185" y="412" font-family="'Courier New', monospace" font-size="20" font-weight="bold" fill="#50FFD0" filter="url(#glowCyan)">COOL</text>
  <text x="185" y="428" font-family="'Courier New', monospace" font-size="8" fill="rgba(80,255,208,0.5)" letter-spacing="1">19° → 21° TARGET</text>
  <!-- bar -->
  <rect x="185" y="438" width="170" height="4" rx="2" fill="rgba(80,255,208,0.15)"/>
  <rect x="185" y="438" width="110" height="4" rx="2" fill="#50FFD0" opacity="0.8"/>

  <!-- Card 5: Switch 2 -->
  <rect x="376" y="367" width="200" height="90" rx="12" fill="rgba(30,20,45,0.65)" stroke="rgba(0,232,255,0.22)" stroke-width="1"/>
  <rect x="376" y="367" width="200" height="2" rx="1" fill="url(#joiCardTop)" opacity="0.6"/>
  <text x="389" y="386" font-family="'Courier New', monospace" font-size="8" letter-spacing="2" fill="rgba(192,208,224,0.6)">SÉCURITÉ</text>
  <text x="567" y="386" text-anchor="end" font-family="'Courier New', monospace" font-size="11" fill="#FF0090" opacity="0.8">🔒</text>
  <text x="389" y="410" font-family="'Courier New', monospace" font-size="13" font-weight="bold" fill="#FF0090" filter="url(#glowPink)">ARMÉ</text>
  <text x="389" y="426" font-family="'Courier New', monospace" font-size="8" fill="rgba(192,208,224,0.4)" letter-spacing="1">MODE NUIT</text>
  <rect x="389" y="436" width="36" height="18" rx="9" fill="rgba(255,0,144,0.35)" stroke="rgba(255,0,144,0.5)" stroke-width="1"/>
  <circle cx="416" cy="445" r="7" fill="white" opacity="0.9"/>

  <!-- ── Palette JOI ── -->
  <rect x="10" y="572" width="578" height="72" rx="0" fill="rgba(10,7,20,0.95)"/>
  <line x1="10" y1="572" x2="588" y2="572" stroke="rgba(0,232,255,0.12)" stroke-width="1"/>
  <text x="24" y="590" font-family="'Courier New', monospace" font-size="7" letter-spacing="3" fill="rgba(0,232,255,0.35)">PALETTE DE COULEURS</text>

  <!-- swatches -->
  <rect x="24" y="598" width="28" height="28" rx="6" fill="#00E8FF"/><rect x="24" y="598" width="28" height="28" rx="6" fill="none" stroke="rgba(0,232,255,0.4)" stroke-width="1"/>
  <text x="38" y="636" text-anchor="middle" font-family="'Courier New', monospace" font-size="6" fill="rgba(255,255,255,0.4)">Primary</text>
  <rect x="62" y="598" width="28" height="28" rx="6" fill="#B041FF"/><rect x="62" y="598" width="28" height="28" rx="6" fill="none" stroke="rgba(176,65,255,0.4)" stroke-width="1"/>
  <text x="76" y="636" text-anchor="middle" font-family="'Courier New', monospace" font-size="6" fill="rgba(255,255,255,0.4)">Secondary</text>
  <rect x="100" y="598" width="28" height="28" rx="6" fill="#E946FF"/><rect x="100" y="598" width="28" height="28" rx="6" fill="none" stroke="rgba(233,70,255,0.4)" stroke-width="1"/>
  <text x="114" y="636" text-anchor="middle" font-family="'Courier New', monospace" font-size="6" fill="rgba(255,255,255,0.4)">Accent</text>
  <rect x="138" y="598" width="28" height="28" rx="6" fill="#FF50A0"/><rect x="138" y="598" width="28" height="28" rx="6" fill="none" stroke="rgba(255,80,160,0.4)" stroke-width="1"/>
  <text x="152" y="636" text-anchor="middle" font-family="'Courier New', monospace" font-size="6" fill="rgba(255,255,255,0.4)">Active</text>
  <rect x="176" y="598" width="28" height="28" rx="6" fill="#FF0090"/>
  <text x="190" y="636" text-anchor="middle" font-family="'Courier New', monospace" font-size="6" fill="rgba(255,255,255,0.4)">Hot Pink</text>
  <rect x="214" y="598" width="28" height="28" rx="6" fill="#50FFD0"/>
  <text x="228" y="636" text-anchor="middle" font-family="'Courier New', monospace" font-size="6" fill="rgba(255,255,255,0.4)">Success</text>
  <rect x="252" y="598" width="28" height="28" rx="6" fill="#FFD050"/>
  <text x="266" y="636" text-anchor="middle" font-family="'Courier New', monospace" font-size="6" fill="rgba(255,255,255,0.4)">Warning</text>
  <rect x="290" y="598" width="28" height="28" rx="6" fill="#5D0CED"/>
  <text x="304" y="636" text-anchor="middle" font-family="'Courier New', monospace" font-size="6" fill="rgba(255,255,255,0.4)">Blacklight</text>
  <rect x="328" y="598" width="28" height="28" rx="6" fill="#1A1525" stroke="rgba(255,255,255,0.12)" stroke-width="1"/>
  <text x="342" y="636" text-anchor="middle" font-family="'Courier New', monospace" font-size="6" fill="rgba(255,255,255,0.4)">Background</text>

  <!-- Features tags JOI -->
  <rect x="390" y="600" width="60" height="16" rx="8" fill="rgba(233,70,255,0.15)" stroke="rgba(233,70,255,0.3)" stroke-width="1"/>
  <text x="420" y="612" text-anchor="middle" font-family="'Courier New', monospace" font-size="7" fill="#E946FF">card-mod</text>
  <rect x="458" y="600" width="44" height="16" rx="8" fill="rgba(0,232,255,0.1)" stroke="rgba(0,232,255,0.25)" stroke-width="1"/>
  <text x="480" y="612" text-anchor="middle" font-family="'Courier New', monospace" font-size="7" fill="#00E8FF">HACS</text>
  <rect x="510" y="600" width="34" height="16" rx="8" fill="rgba(255,80,160,0.1)" stroke="rgba(255,80,160,0.25)" stroke-width="1"/>
  <text x="527" y="612" text-anchor="middle" font-family="'Courier New', monospace" font-size="7" fill="#FF50A0">HDR</text>
  <rect x="552" y="600" width="32" height="16" rx="8" fill="rgba(80,255,208,0.1)" stroke="rgba(80,255,208,0.25)" stroke-width="1"/>
  <text x="568" y="612" text-anchor="middle" font-family="'Courier New', monospace" font-size="7" fill="#50FFD0">iPad</text>

  <!-- Pill bottom bar JOI -->
  <rect x="10" y="644" width="578" height="28" rx="14" fill="#100C22"/>
  <rect x="10" y="644" width="578" height="14" rx="0" fill="#100C22"/>
  <text x="24" y="663" font-family="'Courier New', monospace" font-size="8" fill="rgba(0,232,255,0.35)" letter-spacing="1">neon-night-joi-hdr</text>
  <text x="576" y="663" text-anchor="end" font-family="'Courier New', monospace" font-size="8" fill="rgba(233,70,255,0.4)" letter-spacing="1">dark mode only  ✦</text>

  <!-- ═══════════════════════════════════════════
       THEME 2 — CYBERPUNK NETRUNNER (right)
  ═══════════════════════════════════════════ -->
  <rect x="612" y="60" width="578" height="650" rx="14" fill="#050810" stroke="#00F0FF" stroke-opacity="0.2" stroke-width="1"/>

  <!-- Label bar -->
  <rect x="612" y="60" width="578" height="32" rx="14" fill="#0A0E1A"/>
  <rect x="612" y="78" width="578" height="14" fill="#0A0E1A"/>
  <text x="901" y="81" text-anchor="middle" font-family="'Courier New', monospace" font-size="10" font-weight="bold" letter-spacing="3" fill="#00F0FF" filter="url(#glowCyan)">⬡  CYBERPUNK 2077 — NETRUNNER 2</text>
  <line x1="612" y1="92" x2="1190" y2="92" stroke="#00F0FF" stroke-opacity="0.25" stroke-width="1"/>

  <!-- Shell bg -->
  <rect x="612" y="92" width="578" height="480" fill="url(#netBg)"/>

  <!-- scanlines overlay -->
  <rect x="612" y="92" width="578" height="480" fill="none" stroke="rgba(0,240,255,0.025)" stroke-width="0"/>
  <!-- simulate scanlines with very thin repeating lines (approximation) -->
  <line x1="612" y1="94" x2="1190" y2="94" stroke="rgba(0,240,255,0.025)" stroke-width="1"/>
  <line x1="612" y1="100" x2="1190" y2="100" stroke="rgba(0,240,255,0.025)" stroke-width="1"/>
  <line x1="612" y1="106" x2="1190" y2="106" stroke="rgba(0,240,255,0.025)" stroke-width="1"/>
  <line x1="612" y1="112" x2="1190" y2="112" stroke="rgba(0,240,255,0.025)" stroke-width="1"/>
  <line x1="612" y1="118" x2="1190" y2="118" stroke="rgba(0,240,255,0.025)" stroke-width="1"/>
  <line x1="612" y1="124" x2="1190" y2="124" stroke="rgba(0,240,255,0.025)" stroke-width="1"/>
  <line x1="612" y1="130" x2="1190" y2="130" stroke="rgba(0,240,255,0.025)" stroke-width="1"/>
  <line x1="612" y1="160" x2="1190" y2="160" stroke="rgba(0,240,255,0.02)" stroke-width="1"/>
  <line x1="612" y1="190" x2="1190" y2="190" stroke="rgba(0,240,255,0.02)" stroke-width="1"/>
  <line x1="612" y1="220" x2="1190" y2="220" stroke="rgba(0,240,255,0.02)" stroke-width="1"/>
  <line x1="612" y1="250" x2="1190" y2="250" stroke="rgba(0,240,255,0.02)" stroke-width="1"/>
  <line x1="612" y1="280" x2="1190" y2="280" stroke="rgba(0,240,255,0.02)" stroke-width="1"/>
  <line x1="612" y1="310" x2="1190" y2="310" stroke="rgba(0,240,255,0.02)" stroke-width="1"/>
  <line x1="612" y1="340" x2="1190" y2="340" stroke="rgba(0,240,255,0.02)" stroke-width="1"/>
  <line x1="612" y1="370" x2="1190" y2="370" stroke="rgba(0,240,255,0.02)" stroke-width="1"/>
  <line x1="612" y1="400" x2="1190" y2="400" stroke="rgba(0,240,255,0.02)" stroke-width="1"/>
  <line x1="612" y1="430" x2="1190" y2="430" stroke="rgba(0,240,255,0.02)" stroke-width="1"/>
  <line x1="612" y1="460" x2="1190" y2="460" stroke="rgba(0,240,255,0.02)" stroke-width="1"/>
  <line x1="612" y1="490" x2="1190" y2="490" stroke="rgba(0,240,255,0.02)" stroke-width="1"/>
  <line x1="612" y1="520" x2="1190" y2="520" stroke="rgba(0,240,255,0.02)" stroke-width="1"/>
  <line x1="612" y1="550" x2="1190" y2="550" stroke="rgba(0,240,255,0.02)" stroke-width="1"/>

  <!-- ── Sidebar Netrunner ── -->
  <rect x="612" y="92" width="155" height="480" fill="url(#netSidebar)"/>
  <!-- right edge glow -->
  <rect x="765" y="92" width="2" height="480" fill="url(#netEdge)" opacity="0.9"/>
  <!-- sidebar border left-inset glow effect -->
  <rect x="765" y="92" width="10" height="480" fill="url(#netSidebar)" opacity="0.5"/>

  <!-- Sidebar title -->
  <text x="689" y="126" text-anchor="middle" font-family="'Courier New', monospace" font-size="9" font-weight="bold" letter-spacing="4" fill="#00F0FF" filter="url(#glowCyan)">NIGHT CITY</text>

  <!-- Nav items Netrunner -->
  <rect x="612" y="136" width="153" height="30" fill="url(#netActiveNav)"/>
  <rect x="612" y="136" width="3" height="30" fill="#00FFCC"/>
  <text x="638" y="156" font-family="'Courier New', monospace" font-size="9" fill="#00FFCC" filter="url(#glowCyan)">⌂  DASHBOARD</text>
  <text x="630" y="184" font-family="'Courier New', monospace" font-size="9" fill="#00F0FF" opacity="0.5">⚡  ENERGY</text>
  <text x="630" y="210" font-family="'Courier New', monospace" font-size="9" fill="#00F0FF" opacity="0.5">◉  MAP</text>
  <text x="630" y="236" font-family="'Courier New', monospace" font-size="9" fill="#00F0FF" opacity="0.5">◈  AUTOMATIONS</text>
  <text x="630" y="262" font-family="'Courier New', monospace" font-size="9" fill="#00F0FF" opacity="0.5">⚙  SETTINGS</text>
  <text x="630" y="288" font-family="'Courier New', monospace" font-size="9" fill="#00F0FF" opacity="0.5">◆  HACS</text>

  <!-- ── Header Netrunner ── -->
  <rect x="767" y="92" width="423" height="42" fill="url(#netHeader)"/>
  <line x1="767" y1="134" x2="1190" y2="134" stroke="url(#netHeaderLine)" stroke-width="2" opacity="0.9"/>
  <text x="787" y="117" font-family="'Courier New', monospace" font-size="9" fill="#00F0FF" filter="url(#glowCyan)" opacity="0.8">⌂</text>
  <text x="802" y="117" font-family="'Courier New', monospace" font-size="9" font-weight="bold" letter-spacing="3" fill="#00F0FF" filter="url(#glowCyan)">DASHBOARD</text>
  <!-- alert badge -->
  <rect x="1110" y="107" width="38" height="16" rx="8" fill="rgba(255,23,68,0.15)" stroke="rgba(255,23,68,0.4)" stroke-width="1"/>
  <text x="1129" y="119" text-anchor="middle" font-family="'Courier New', monospace" font-size="7" fill="#FF1744">ALERT</text>
  <text x="1158" y="117" font-family="'Courier New', monospace" font-size="9" fill="#00F0FF" opacity="0.7">⚙</text>

  <!-- ── Cards Netrunner ── -->
  <!-- Card 1: Température -->
  <rect x="774" y="144" width="195" height="110" rx="12" fill="rgba(10,14,26,0.85)" stroke="rgba(0,240,255,0.2)" stroke-width="1"/>
  <rect x="774" y="144" width="195" height="2" rx="1" fill="url(#netCardTop)" opacity="0.7"/>
  <text x="787" y="163" font-family="'Courier New', monospace" font-size="8" letter-spacing="2" fill="rgba(0,240,255,0.5)">TEMPÉRATURE</text>
  <text x="961" y="163" text-anchor="end" font-family="'Courier New', monospace" font-size="14" fill="#00F0FF" opacity="0.7">🌡</text>
  <text x="787" y="192" font-family="'Courier New', monospace" font-size="26" font-weight="bold" fill="#00F0FF" filter="url(#glowCyan)">21.4°</text>
  <text x="787" y="210" font-family="'Courier New', monospace" font-size="8" fill="rgba(0,240,255,0.35)" letter-spacing="1">SALON · ONLINE</text>
  <circle cx="787" cy="232" r="4" fill="#00F0FF" opacity="0.9"/>
  <circle cx="800" cy="232" r="4" fill="#00FFCC" opacity="0.7"/>
  <circle cx="813" cy="232" r="4" fill="#8CFFFF" opacity="0.6"/>

  <!-- Card 2: Lumière -->
  <rect x="978" y="144" width="200" height="110" rx="12" fill="rgba(10,14,26,0.85)" stroke="rgba(0,240,255,0.2)" stroke-width="1"/>
  <rect x="978" y="144" width="200" height="2" rx="1" fill="url(#netCardTop)" opacity="0.7"/>
  <text x="991" y="163" font-family="'Courier New', monospace" font-size="8" letter-spacing="2" fill="rgba(0,240,255,0.5)">BUREAU</text>
  <text x="1169" y="163" text-anchor="end" font-family="'Courier New', monospace" font-size="14" fill="#00FFCC" opacity="0.7">💡</text>
  <text x="991" y="186" font-family="'Courier New', monospace" font-size="13" font-weight="bold" fill="#00FFCC" filter="url(#glowCyan)">ON-LINE</text>
  <text x="991" y="202" font-family="'Courier New', monospace" font-size="8" fill="rgba(0,240,255,0.35)" letter-spacing="1">LUMINOSITÉ 75%</text>
  <rect x="991" y="212" width="36" height="18" rx="9" fill="rgba(0,255,204,0.3)" stroke="rgba(0,255,204,0.5)" stroke-width="1"/>
  <circle cx="1018" cy="221" r="7" fill="white" opacity="0.9"/>
  <rect x="1037" y="218" width="120" height="4" rx="2" fill="rgba(0,240,255,0.15)"/>
  <rect x="1037" y="218" width="90" height="4" rx="2" fill="url(#netProgress)"/>
  <circle cx="1127" cy="220" r="5" fill="#00F0FF" filter="url(#glowCyan)"/>

  <!-- Card 3: Media wide -->
  <rect x="774" y="265" width="404" height="90" rx="12" fill="rgba(10,14,26,0.85)" stroke="rgba(0,240,255,0.2)" stroke-width="1"/>
  <rect x="774" y="265" width="404" height="2" rx="1" fill="url(#netCardTop)" opacity="0.7"/>
  <text x="787" y="284" font-family="'Courier New', monospace" font-size="8" letter-spacing="2" fill="rgba(0,240,255,0.5)">MEDIA PLAYER — JACK</text>
  <text x="1168" y="284" text-anchor="end" font-family="'Courier New', monospace" font-size="11" fill="#00FFCC" opacity="0.7">♫</text>
  <!-- album art -->
  <rect x="787" y="290" width="36" height="36" rx="6" fill="url(#netProgress)" opacity="0.8"/>
  <!-- track info -->
  <text x="834" y="305" font-family="'Courier New', monospace" font-size="9" font-weight="bold" fill="#00F0FF" filter="url(#glowCyan)">A Cool Place</text>
  <text x="834" y="320" font-family="'Courier New', monospace" font-size="8" fill="rgba(0,240,255,0.35)">Cyberpunk 2077 OST</text>
  <!-- controls -->
  <text x="1082" y="315" text-anchor="middle" font-family="'Courier New', monospace" font-size="14" fill="#00FFCC" filter="url(#glowCyan)">⏮  ▶  ⏭</text>
  <!-- progress -->
  <rect x="787" y="335" width="380" height="5" rx="2.5" fill="rgba(0,240,255,0.1)"/>
  <rect x="787" y="335" width="228" height="5" rx="2.5" fill="url(#netProgress)"/>

  <!-- Card 4 -->
  <rect x="774" y="367" width="195" height="90" rx="12" fill="rgba(10,14,26,0.85)" stroke="rgba(0,240,255,0.2)" stroke-width="1"/>
  <rect x="774" y="367" width="195" height="2" rx="1" fill="url(#netCardTop)" opacity="0.7"/>
  <text x="787" y="386" font-family="'Courier New', monospace" font-size="8" letter-spacing="2" fill="rgba(0,240,255,0.5)">TEMPÉRATURE</text>
  <text x="961" y="386" text-anchor="end" font-family="'Courier New', monospace" font-size="11" fill="#00F0FF" opacity="0.7">❄</text>
  <text x="787" y="412" font-family="'Courier New', monospace" font-size="20" font-weight="bold" fill="#00FFCC" filter="url(#glowCyan)">COOL</text>
  <text x="787" y="428" font-family="'Courier New', monospace" font-size="8" fill="rgba(0,255,204,0.4)" letter-spacing="1">19° → 21° TARGET</text>
  <rect x="787" y="438" width="170" height="4" rx="2" fill="rgba(0,240,255,0.12)"/>
  <rect x="787" y="438" width="110" height="4" rx="2" fill="url(#netProgress)" opacity="0.9"/>

  <!-- Card 5 -->
  <rect x="978" y="367" width="200" height="90" rx="12" fill="rgba(10,14,26,0.85)" stroke="rgba(0,240,255,0.2)" stroke-width="1"/>
  <rect x="978" y="367" width="200" height="2" rx="1" fill="url(#netCardTop)" opacity="0.7"/>
  <text x="991" y="386" font-family="'Courier New', monospace" font-size="8" letter-spacing="2" fill="rgba(0,240,255,0.5)">SÉCURITÉ</text>
  <text x="1169" y="386" text-anchor="end" font-family="'Courier New', monospace" font-size="11" fill="#FF1744" opacity="0.8">🔒</text>
  <text x="991" y="410" font-family="'Courier New', monospace" font-size="13" font-weight="bold" fill="#FF1744">ARMÉ</text>
  <text x="991" y="426" font-family="'Courier New', monospace" font-size="8" fill="rgba(0,240,255,0.35)" letter-spacing="1">MODE NUIT</text>
  <rect x="991" y="436" width="36" height="18" rx="9" fill="rgba(255,23,68,0.25)" stroke="rgba(255,23,68,0.4)" stroke-width="1"/>
  <circle cx="1018" cy="445" r="7" fill="white" opacity="0.9"/>

  <!-- ── Palette Netrunner ── -->
  <rect x="612" y="572" width="578" height="72" rx="0" fill="rgba(5,8,16,0.98)"/>
  <line x1="612" y1="572" x2="1190" y2="572" stroke="rgba(0,240,255,0.15)" stroke-width="1"/>
  <text x="626" y="590" font-family="'Courier New', monospace" font-size="7" letter-spacing="3" fill="rgba(0,240,255,0.35)">PALETTE DE COULEURS</text>

  <rect x="626" y="598" width="28" height="28" rx="6" fill="#00F0FF"/>
  <text x="640" y="636" text-anchor="middle" font-family="'Courier New', monospace" font-size="6" fill="rgba(0,240,255,0.4)">Cyan</text>
  <rect x="664" y="598" width="28" height="28" rx="6" fill="#8CFFFF"/>
  <text x="678" y="636" text-anchor="middle" font-family="'Courier New', monospace" font-size="6" fill="rgba(0,240,255,0.4)">Ice Blue</text>
  <rect x="702" y="598" width="28" height="28" rx="6" fill="#00FFCC"/>
  <text x="716" y="636" text-anchor="middle" font-family="'Courier New', monospace" font-size="6" fill="rgba(0,240,255,0.4)">Accent</text>
  <rect x="740" y="598" width="28" height="28" rx="6" fill="#FF1744"/>
  <text x="754" y="636" text-anchor="middle" font-family="'Courier New', monospace" font-size="6" fill="rgba(0,240,255,0.4)">Error</text>
  <rect x="778" y="598" width="28" height="28" rx="6" fill="#FFB300"/>
  <text x="792" y="636" text-anchor="middle" font-family="'Courier New', monospace" font-size="6" fill="rgba(0,240,255,0.4)">Warning</text>
  <rect x="816" y="598" width="28" height="28" rx="6" fill="#0A0E1A" stroke="rgba(0,240,255,0.2)" stroke-width="1"/>
  <text x="830" y="636" text-anchor="middle" font-family="'Courier New', monospace" font-size="6" fill="rgba(0,240,255,0.4)">Dark Purple</text>
  <rect x="854" y="598" width="28" height="28" rx="6" fill="#0F1923" stroke="rgba(0,240,255,0.15)" stroke-width="1"/>
  <text x="868" y="636" text-anchor="middle" font-family="'Courier New', monospace" font-size="6" fill="rgba(0,240,255,0.4)">Dark Blue</text>
  <rect x="892" y="598" width="28" height="28" rx="6" fill="#050810" stroke="rgba(0,240,255,0.12)" stroke-width="1"/>
  <text x="906" y="636" text-anchor="middle" font-family="'Courier New', monospace" font-size="6" fill="rgba(0,240,255,0.4)">BG</text>

  <!-- Feature tags Netrunner -->
  <rect x="952" y="600" width="60" height="16" rx="8" fill="rgba(0,240,255,0.1)" stroke="rgba(0,240,255,0.25)" stroke-width="1"/>
  <text x="982" y="612" text-anchor="middle" font-family="'Courier New', monospace" font-size="7" fill="#00F0FF">card-mod</text>
  <rect x="1020" y="600" width="44" height="16" rx="8" fill="rgba(0,240,255,0.08)" stroke="rgba(0,240,255,0.2)" stroke-width="1"/>
  <text x="1042" y="612" text-anchor="middle" font-family="'Courier New', monospace" font-size="7" fill="#00FFCC">HACS</text>
  <rect x="1072" y="600" width="52" height="16" rx="8" fill="rgba(255,23,68,0.1)" stroke="rgba(255,23,68,0.25)" stroke-width="1"/>
  <text x="1098" y="612" text-anchor="middle" font-family="'Courier New', monospace" font-size="7" fill="#FF1744">Scanlines</text>
  <rect x="1132" y="600" width="48" height="16" rx="8" fill="rgba(0,255,204,0.08)" stroke="rgba(0,255,204,0.2)" stroke-width="1"/>
  <text x="1156" y="612" text-anchor="middle" font-family="'Courier New', monospace" font-size="7" fill="#00FFCC">Glitch</text>

  <!-- Pill bottom bar Netrunner -->
  <rect x="612" y="644" width="578" height="28" rx="14" fill="#080C18"/>
  <rect x="612" y="644" width="578" height="14" rx="0" fill="#080C18"/>
  <text x="626" y="663" font-family="'Courier New', monospace" font-size="8" fill="rgba(0,240,255,0.3)" letter-spacing="1">cyberpunk-2077-netrunner2</text>
  <text x="1178" y="663" text-anchor="end" font-family="'Courier New', monospace" font-size="8" fill="rgba(0,255,204,0.4)" letter-spacing="1">dark mode only  ⬡</text>

  <!-- ═══════════════════════════════════════════
       CENTER DIVIDER
  ═══════════════════════════════════════════ -->
  <line x1="600" y1="80" x2="600" y2="660" stroke="rgba(255,255,255,0.05)" stroke-width="1"/>

  <!-- ═══════════════════════════════════════════
       BOTTOM BAR
  ═══════════════════════════════════════════ -->
  <text x="600" y="700" text-anchor="middle" font-family="'Courier New', monospace" font-size="8" fill="rgba(255,255,255,0.15)" letter-spacing="2">HOME ASSISTANT CUSTOM THEMES  ·  card-mod  ·  HACS compatible  ·  Dark mode</text>
</svg>
